# xmcd
#
# Track frame offsets:
#	150
#	15084
#	39834
#	52262
#	65822
#	77142
#	89666
#	106498
#	117671
#	133865
#	145878
#	158020
#	172164
#	184025
#	196566
#	207967
#	221177
#	231947
#	250972
#	265991
#	282657
#	297937
#
# Disc length: 4350 seconds
#
# Revision: 1
# Processed by: cddbd v1.5.2PL0 Copyright (c) Steve Scherf et al.
# Submitted via: EZCDAudioConverter 1.3.4.1
#
DISCID=5910fc16
DTITLE=Sir Douglas Quintet - Mono Singles '68-'72
DYEAR=2005
DGENRE=
TTITLE0=Are Inlaws Really Outlaws
TTITLE1=Sell A Song
TTITLE2=Mendocino
TTITLE3=I Wanna Be Your Mama Again
TTITLE4=It Didn't Even Bring Me Down
TTITLE5=Lawd, I'm Just A Coutry Boy In This Great Big Freaky City
TTITLE6=Dynamite Woman
TTITLE7=Too Many Dociled Minds
TTITLE8=At The Crossroads
TTITLE9=Texas Me
TTITLE10=Nuevo Laredo
TTITLE11=I Don't Want To Go Home
TTITLE12=Be Real
TTITLE13=I Don't Want To Go Home
TTITLE14=What About Tomorrow
TTITLE15=(I Found Love) A Nice Song
TTITLE16=Catch The Man On The Rise
TTITLE17=Pretty Flower
TTITLE18=Me And My Destiny
TTITLE19=Wasted Days, Wasted Nights
TTITLE20=Michoacan
TTITLE21=Westside Blues Again
EXTD=
EXTT0=
EXTT1=
EXTT2=
EXTT3=
EXTT4=
EXTT5=
EXTT6=
EXTT7=
EXTT8=
EXTT9=
EXTT10=
EXTT11=
EXTT12=
EXTT13=
EXTT14=
EXTT15=
EXTT16=
EXTT17=
EXTT18=
EXTT19=
EXTT20=
EXTT21=
PLAYORDER=
